# xmcd
#
# Track frame offsets:
#	150
#	14307
#	31144
#
# Disc length: 625 seconds
#
# Revision: 0
# Processed by: cddbd v1.5.2PL0 Copyright (c) Steve Scherf et al.
# Submitted via: audiograbber 1.83.01
#
DISCID=16026f03
DTITLE=Highway 101 - Kar 001
DYEAR=1987
DGENRE=Country
TTITLE0=Whiskey If You Were A Woman
TTITLE1=The Bed You Made For Me
TTITLE2=Somewhere Tonight
EXTD=
EXTT0=
EXTT1=
EXTT2=
PLAYORDER=
